<svg xmlns="http://www.w3.org/2000/svg" viewBox="0 0 512 512">
  <rect width="512" height="512" rx="112" fill="#0D1F12"/>
  <g transform="translate(76, 76) scale(2.77)" fill="#ADCCB7">
    <path d="M25.2,65.21h-7.17c0-26.02,21.17-47.18,47.18-47.18v7.18c-22.06,0-40.01,17.95-40.01,40.01Z"/>
    <path d="M65.21,112.4v-7.18c22.06,0,40.01-17.95,40.01-40.01h7.17c0,26.02-21.17,47.19-47.18,47.19Z"/>
    <path d="M42.64,65.21h-7.17c0-16.4,13.34-29.75,29.74-29.75v7.18c-12.45,0-22.57,10.13-22.57,22.57Z"/>
    <path d="M65.21,94.96v-7.18c12.45,0,22.57-10.13,22.57-22.57h7.17c0,16.4-13.34,29.75-29.74,29.75Z"/>
    <rect x="89.55" y="23.47" width="7.18" height="61.08" transform="translate(38.71 146.91) rotate(-89.75)"/>
    <rect x="33.7" y="45.87" width="7.18" height="61.08" transform="translate(-39.29 113.36) rotate(-89.75)"/>
    <path d="M65.21,130.43c-16.71,0-33.41-6.36-46.13-19.08-25.44-25.44-25.44-66.83,0-92.27h0c25.44-25.44,66.83-25.44,92.27,0,25.44,25.44,25.44,66.83,0,92.27-12.72,12.72-29.43,19.08-46.14,19.08ZM24.15,24.15C1.51,46.79,1.51,83.63,24.15,106.28c22.64,22.64,59.48,22.64,82.12,0,22.64-22.64,22.64-59.48,0-82.12C83.63,1.51,46.79,1.52,24.15,24.15h0Z"/>
  </g>
</svg>
